<svg width="21" height="11" viewBox="0 0 21 11" fill="none" xmlns="http://www.w3.org/2000/svg">
<path d="M14.978 10.7706C15.2819 11.0765 15.7748 11.0765 16.0788 10.7706L20.689 6.1319C20.7179 6.11 20.7457 6.0858 20.772 6.0593C20.9254 5.90497 21.0014 5.70227 21 5.5C21.0014 5.29773 20.9254 5.09502 20.772 4.9407C20.7457 4.9142 20.7179 4.89 20.689 4.86809L16.0788 0.229408C15.7748 -0.0764698 15.2819 -0.0764689 14.978 0.229409C14.674 0.535288 14.674 1.03122 14.978 1.3371L18.3698 4.74988L0.778434 4.74988C0.348517 4.74988 -5.15746e-07 5.10056 -4.77928e-07 5.53314C-4.40111e-07 5.96571 0.348516 6.31639 0.778433 6.31639L18.3039 6.31639L14.978 9.6629C14.674 9.96878 14.674 10.4647 14.978 10.7706Z" fill="#FE9071"/>
</svg>
